<svg width="106" height="11" viewBox="0 0 106 11" fill="none" xmlns="http://www.w3.org/2000/svg">
<path d="M4.80956 10.154C4.2029 10.154 3.62423 10.0467 3.07356 9.832C2.5229 9.608 2.04223 9.29533 1.63156 8.894C1.2209 8.48333 0.894229 7.99333 0.651563 7.424C0.408896 6.84533 0.287563 6.19667 0.287563 5.478C0.287563 4.76867 0.408896 4.12933 0.651563 3.56C0.894229 2.99067 1.2209 2.50533 1.63156 2.104C2.04223 1.70267 2.5229 1.39467 3.07356 1.18C3.62423 0.965333 4.2029 0.857999 4.80956 0.857999C5.41623 0.857999 5.99023 0.965333 6.53156 1.18C7.08223 1.39467 7.5629 1.70267 7.97356 2.104C8.39356 2.50533 8.7249 2.99067 8.96756 3.56C9.21023 4.12933 9.33156 4.76867 9.33156 5.478C9.33156 6.19667 9.21023 6.84533 8.96756 7.424C8.7249 7.99333 8.39356 8.48333 7.97356 8.894C7.5629 9.29533 7.08223 9.608 6.53156 9.832C5.99023 10.0467 5.41623 10.154 4.80956 10.154ZM4.80956 9.566C5.34156 9.566 5.8409 9.468 6.30756 9.272C6.77423 9.076 7.18023 8.80067 7.52556 8.446C7.88023 8.082 8.16023 7.65267 8.36556 7.158C8.5709 6.654 8.67356 6.094 8.67356 5.478C8.67356 4.87133 8.5709 4.32067 8.36556 3.826C8.16023 3.322 7.88023 2.89267 7.52556 2.538C7.18023 2.18333 6.77423 1.91267 6.30756 1.726C5.8409 1.53 5.34156 1.432 4.80956 1.432C4.27756 1.432 3.77823 1.53 3.31156 1.726C2.8449 1.91267 2.43423 2.18333 2.07956 2.538C1.73423 2.89267 1.4589 3.322 1.25356 3.826C1.04823 4.32067 0.945563 4.87133 0.945563 5.478C0.945563 6.094 1.04823 6.654 1.25356 7.158C1.4589 7.65267 1.73423 8.082 2.07956 8.446C2.43423 8.80067 2.8449 9.076 3.31156 9.272C3.77823 9.468 4.27756 9.566 4.80956 9.566ZM4.92156 8.25C4.5669 8.25 4.23556 8.18933 3.92756 8.068C3.61956 7.93733 3.3489 7.75533 3.11556 7.522C2.88223 7.27933 2.70023 6.99 2.56956 6.654C2.4389 6.30867 2.37356 5.91667 2.37356 5.478C2.37356 5.07667 2.44356 4.71267 2.58356 4.386C2.7329 4.05933 2.92423 3.77933 3.15756 3.546C3.40023 3.31267 3.67556 3.13533 3.98356 3.014C4.3009 2.89267 4.62756 2.832 4.96356 2.832C5.35556 2.832 5.6869 2.91133 5.95756 3.07C6.23756 3.21933 6.48956 3.406 6.71356 3.63L6.22356 4.176C6.0369 3.98933 5.84556 3.84933 5.64956 3.756C5.4629 3.65333 5.24823 3.602 5.00556 3.602C4.49223 3.602 4.0769 3.77933 3.75956 4.134C3.45156 4.47933 3.29756 4.92733 3.29756 5.478C3.29756 6.094 3.4469 6.584 3.74556 6.948C4.05356 7.30267 4.45956 7.48 4.96356 7.48C5.26223 7.48 5.52356 7.424 5.74756 7.312C5.97156 7.19067 6.18623 7.04133 6.39156 6.864L6.81156 7.452C6.55023 7.676 6.2749 7.86733 5.98556 8.026C5.69623 8.17533 5.34156 8.25 4.92156 8.25ZM14.0823 10V0.816H15.2443V4.666H19.5143V0.816H20.6903V10H19.5143V5.674H15.2443V10H14.0823ZM25.8611 10.168C25.4037 10.168 24.9744 10.0887 24.5731 9.93C24.1811 9.762 23.8357 9.52867 23.5371 9.23C23.2477 8.922 23.0191 8.54867 22.8511 8.11C22.6831 7.67133 22.5991 7.172 22.5991 6.612C22.5991 6.052 22.6831 5.55267 22.8511 5.114C23.0284 4.666 23.2571 4.288 23.5371 3.98C23.8264 3.672 24.1531 3.43867 24.5171 3.28C24.8811 3.112 25.2591 3.028 25.6511 3.028C26.0804 3.028 26.4631 3.10267 26.7991 3.252C27.1444 3.40133 27.4291 3.616 27.6531 3.896C27.8864 4.176 28.0637 4.512 28.1851 4.904C28.3064 5.296 28.3671 5.73467 28.3671 6.22C28.3671 6.34133 28.3624 6.46267 28.3531 6.584C28.3531 6.696 28.3437 6.794 28.3251 6.878H23.7331C23.7797 7.606 24.0037 8.18467 24.4051 8.614C24.8157 9.034 25.3477 9.244 26.0011 9.244C26.3277 9.244 26.6264 9.19733 26.8971 9.104C27.1771 9.00133 27.4431 8.87067 27.6951 8.712L28.1011 9.468C27.8024 9.65467 27.4711 9.818 27.1071 9.958C26.7431 10.098 26.3277 10.168 25.8611 10.168ZM23.7191 6.052H27.3591C27.3591 5.36133 27.2097 4.83867 26.9111 4.484C26.6217 4.12 26.2111 3.938 25.6791 3.938C25.4364 3.938 25.2031 3.98467 24.9791 4.078C24.7644 4.17133 24.5684 4.31133 24.3911 4.498C24.2137 4.67533 24.0644 4.89467 23.9431 5.156C23.8311 5.41733 23.7564 5.716 23.7191 6.052ZM31.2664 10.168C30.8277 10.168 30.5151 10.0373 30.3284 9.776C30.1417 9.51467 30.0484 9.132 30.0484 8.628V0.0319998H31.1964V8.712C31.1964 8.89867 31.2291 9.02933 31.2944 9.104C31.3597 9.17867 31.4344 9.216 31.5184 9.216C31.5557 9.216 31.5884 9.216 31.6164 9.216C31.6537 9.216 31.7051 9.20667 31.7704 9.188L31.9244 10.056C31.8497 10.0933 31.7611 10.1213 31.6584 10.14C31.5557 10.1587 31.4251 10.168 31.2664 10.168ZM34.8348 10.168C34.3961 10.168 34.0834 10.0373 33.8968 9.776C33.7101 9.51467 33.6168 9.132 33.6168 8.628V0.0319998H34.7648V8.712C34.7648 8.89867 34.7974 9.02933 34.8628 9.104C34.9281 9.17867 35.0028 9.216 35.0868 9.216C35.1241 9.216 35.1568 9.216 35.1848 9.216C35.2221 9.216 35.2734 9.20667 35.3388 9.188L35.4928 10.056C35.4181 10.0933 35.3294 10.1213 35.2268 10.14C35.1241 10.1587 34.9934 10.168 34.8348 10.168ZM39.8311 10.168C39.4111 10.168 39.0098 10.0887 38.6271 9.93C38.2538 9.77133 37.9224 9.54267 37.6331 9.244C37.3438 8.936 37.1104 8.56267 36.9331 8.124C36.7651 7.676 36.6811 7.172 36.6811 6.612C36.6811 6.04267 36.7651 5.53867 36.9331 5.1C37.1104 4.652 37.3438 4.274 37.6331 3.966C37.9224 3.658 38.2538 3.42467 38.6271 3.266C39.0098 3.10733 39.4111 3.028 39.8311 3.028C40.2511 3.028 40.6478 3.10733 41.0211 3.266C41.4038 3.42467 41.7398 3.658 42.0291 3.966C42.3184 4.274 42.5471 4.652 42.7151 5.1C42.8924 5.53867 42.9811 6.04267 42.9811 6.612C42.9811 7.172 42.8924 7.676 42.7151 8.124C42.5471 8.56267 42.3184 8.936 42.0291 9.244C41.7398 9.54267 41.4038 9.77133 41.0211 9.93C40.6478 10.0887 40.2511 10.168 39.8311 10.168ZM39.8311 9.216C40.1204 9.216 40.3864 9.15533 40.6291 9.034C40.8718 8.90333 41.0771 8.726 41.2451 8.502C41.4224 8.26867 41.5578 7.99333 41.6511 7.676C41.7444 7.35867 41.7911 7.004 41.7911 6.612C41.7911 6.22 41.7444 5.86533 41.6511 5.548C41.5578 5.22133 41.4224 4.94133 41.2451 4.708C41.0771 4.47467 40.8718 4.29733 40.6291 4.176C40.3864 4.04533 40.1204 3.98 39.8311 3.98C39.5418 3.98 39.2758 4.04533 39.0331 4.176C38.7904 4.29733 38.5804 4.47467 38.4031 4.708C38.2351 4.94133 38.1044 5.22133 38.0111 5.548C37.9178 5.86533 37.8711 6.22 37.8711 6.612C37.8711 7.004 37.9178 7.35867 38.0111 7.676C38.1044 7.99333 38.2351 8.26867 38.4031 8.502C38.5804 8.726 38.7904 8.90333 39.0331 9.034C39.2758 9.15533 39.5418 9.216 39.8311 9.216ZM44.885 10V0.816H50.177V1.796H46.047V4.904H49.547V5.884H46.047V10H44.885ZM51.4175 10V3.196H52.3695L52.4675 4.428H52.5095C52.7429 3.99867 53.0229 3.658 53.3495 3.406C53.6855 3.154 54.0495 3.028 54.4415 3.028C54.7122 3.028 54.9549 3.07467 55.1695 3.168L54.9455 4.176C54.8335 4.13867 54.7309 4.11067 54.6375 4.092C54.5442 4.07333 54.4275 4.064 54.2875 4.064C53.9982 4.064 53.6949 4.18067 53.3775 4.414C53.0695 4.64733 52.7989 5.05333 52.5655 5.632V10H51.4175ZM58.8923 10.168C58.435 10.168 58.0057 10.0887 57.6043 9.93C57.2123 9.762 56.867 9.52867 56.5683 9.23C56.279 8.922 56.0503 8.54867 55.8823 8.11C55.7143 7.67133 55.6303 7.172 55.6303 6.612C55.6303 6.052 55.7143 5.55267 55.8823 5.114C56.0597 4.666 56.2883 4.288 56.5683 3.98C56.8577 3.672 57.1843 3.43867 57.5483 3.28C57.9123 3.112 58.2903 3.028 58.6823 3.028C59.1117 3.028 59.4943 3.10267 59.8303 3.252C60.1757 3.40133 60.4603 3.616 60.6843 3.896C60.9177 4.176 61.095 4.512 61.2163 4.904C61.3377 5.296 61.3983 5.73467 61.3983 6.22C61.3983 6.34133 61.3937 6.46267 61.3843 6.584C61.3843 6.696 61.375 6.794 61.3563 6.878H56.7643C56.811 7.606 57.035 8.18467 57.4363 8.614C57.847 9.034 58.379 9.244 59.0323 9.244C59.359 9.244 59.6577 9.19733 59.9283 9.104C60.2083 9.00133 60.4743 8.87067 60.7263 8.712L61.1323 9.468C60.8337 9.65467 60.5023 9.818 60.1383 9.958C59.7743 10.098 59.359 10.168 58.8923 10.168ZM56.7503 6.052H60.3903C60.3903 5.36133 60.241 4.83867 59.9423 4.484C59.653 4.12 59.2423 3.938 58.7103 3.938C58.4677 3.938 58.2343 3.98467 58.0103 4.078C57.7957 4.17133 57.5997 4.31133 57.4223 4.498C57.245 4.67533 57.0957 4.89467 56.9743 5.156C56.8623 5.41733 56.7877 5.716 56.7503 6.052ZM64.8576 10.168C64.3723 10.168 63.9103 10.0793 63.4716 9.902C63.033 9.72467 62.6503 9.50067 62.3236 9.23L62.8976 8.46C63.1963 8.70267 63.4996 8.89867 63.8076 9.048C64.125 9.19733 64.489 9.272 64.8996 9.272C65.3476 9.272 65.6836 9.16933 65.9076 8.964C66.1316 8.75867 66.2436 8.50667 66.2436 8.208C66.2436 8.03067 66.197 7.87667 66.1036 7.746C66.0103 7.61533 65.889 7.50333 65.7396 7.41C65.5996 7.30733 65.4363 7.21867 65.2496 7.144C65.063 7.06933 64.8763 6.99467 64.6896 6.92C64.447 6.836 64.2043 6.74267 63.9616 6.64C63.719 6.528 63.4996 6.39733 63.3036 6.248C63.117 6.08933 62.963 5.90733 62.8416 5.702C62.7203 5.49667 62.6596 5.24933 62.6596 4.96C62.6596 4.68933 62.711 4.43733 62.8136 4.204C62.9256 3.96133 63.0796 3.756 63.2756 3.588C63.481 3.41067 63.7283 3.27533 64.0176 3.182C64.307 3.07933 64.6336 3.028 64.9976 3.028C65.427 3.028 65.819 3.10267 66.1736 3.252C66.5376 3.40133 66.8503 3.58333 67.1116 3.798L66.5656 4.526C66.3323 4.34867 66.0896 4.204 65.8376 4.092C65.5856 3.98 65.3103 3.924 65.0116 3.924C64.5823 3.924 64.265 4.022 64.0596 4.218C63.8636 4.414 63.7656 4.64267 63.7656 4.904C63.7656 5.06267 63.8076 5.20267 63.8916 5.324C63.9756 5.436 64.0876 5.53867 64.2276 5.632C64.3676 5.716 64.5263 5.79533 64.7036 5.87C64.8903 5.93533 65.0816 6.00533 65.2776 6.08C65.5203 6.17333 65.763 6.27133 66.0056 6.374C66.2576 6.47667 66.4816 6.60733 66.6776 6.766C66.8736 6.91533 67.0323 7.102 67.1536 7.326C67.2843 7.55 67.3496 7.82067 67.3496 8.138C67.3496 8.418 67.2936 8.67933 67.1816 8.922C67.079 9.16467 66.9203 9.37933 66.7056 9.566C66.5003 9.75267 66.239 9.89733 65.9216 10C65.6136 10.112 65.259 10.168 64.8576 10.168ZM68.9449 10V0.0319998H70.0929V2.748L70.0509 4.148C70.3775 3.84 70.7182 3.57867 71.0729 3.364C71.4275 3.14 71.8429 3.028 72.3189 3.028C73.0375 3.028 73.5602 3.252 73.8869 3.7C74.2229 4.148 74.3909 4.81067 74.3909 5.688V10H73.2429V5.842C73.2429 5.198 73.1402 4.736 72.9349 4.456C72.7295 4.16667 72.4029 4.022 71.9549 4.022C71.6002 4.022 71.2875 4.11067 71.0169 4.288C70.7462 4.46533 70.4382 4.72667 70.0929 5.072V10H68.9449ZM78.7748 10V9.314C79.4468 8.642 80.0442 8.03533 80.5668 7.494C81.0895 6.95267 81.5282 6.45333 81.8828 5.996C82.2375 5.52933 82.5082 5.10467 82.6948 4.722C82.8815 4.33 82.9748 3.952 82.9748 3.588C82.9748 3.07467 82.8348 2.65467 82.5548 2.328C82.2748 2.00133 81.8502 1.838 81.2808 1.838C80.9075 1.838 80.5622 1.94533 80.2448 2.16C79.9275 2.36533 79.6382 2.61733 79.3768 2.916L78.7188 2.258C79.0922 1.84733 79.4888 1.52067 79.9088 1.278C80.3288 1.026 80.8328 0.899999 81.4208 0.899999C82.2515 0.899999 82.9048 1.14267 83.3808 1.628C83.8568 2.104 84.0948 2.73867 84.0948 3.532C84.0948 3.952 84.0015 4.37667 83.8148 4.806C83.6375 5.226 83.3855 5.66467 83.0588 6.122C82.7415 6.57 82.3588 7.04133 81.9108 7.536C81.4722 8.02133 80.9868 8.53933 80.4548 9.09C80.6975 9.07133 80.9495 9.05267 81.2108 9.034C81.4722 9.01533 81.7195 9.006 81.9528 9.006H84.5428V10H78.7748ZM88.6598 10.168C87.7545 10.168 87.0498 9.76667 86.5458 8.964C86.0418 8.16133 85.7898 7.00867 85.7898 5.506C85.7898 4.00333 86.0418 2.86 86.5458 2.076C87.0498 1.292 87.7545 0.899999 88.6598 0.899999C89.5558 0.899999 90.2558 1.292 90.7598 2.076C91.2638 2.86 91.5158 4.00333 91.5158 5.506C91.5158 7.00867 91.2638 8.16133 90.7598 8.964C90.2558 9.76667 89.5558 10.168 88.6598 10.168ZM88.6598 9.244C88.9212 9.244 89.1545 9.174 89.3598 9.034C89.5745 8.88467 89.7565 8.66067 89.9058 8.362C90.0645 8.054 90.1858 7.66667 90.2698 7.2C90.3538 6.724 90.3958 6.15933 90.3958 5.506C90.3958 4.85267 90.3538 4.29267 90.2698 3.826C90.1858 3.35933 90.0645 2.98133 89.9058 2.692C89.7565 2.39333 89.5745 2.174 89.3598 2.034C89.1545 1.894 88.9212 1.824 88.6598 1.824C88.3985 1.824 88.1605 1.894 87.9458 2.034C87.7312 2.174 87.5445 2.39333 87.3858 2.692C87.2365 2.98133 87.1198 3.35933 87.0358 3.826C86.9518 4.29267 86.9098 4.85267 86.9098 5.506C86.9098 6.81267 87.0685 7.76467 87.3858 8.362C87.7125 8.95 88.1372 9.244 88.6598 9.244ZM92.6928 10V9.314C93.3648 8.642 93.9621 8.03533 94.4848 7.494C95.0075 6.95267 95.4461 6.45333 95.8008 5.996C96.1555 5.52933 96.4261 5.10467 96.6128 4.722C96.7995 4.33 96.8928 3.952 96.8928 3.588C96.8928 3.07467 96.7528 2.65467 96.4728 2.328C96.1928 2.00133 95.7681 1.838 95.1988 1.838C94.8255 1.838 94.4801 1.94533 94.1628 2.16C93.8455 2.36533 93.5561 2.61733 93.2948 2.916L92.6368 2.258C93.0101 1.84733 93.4068 1.52067 93.8268 1.278C94.2468 1.026 94.7508 0.899999 95.3388 0.899999C96.1695 0.899999 96.8228 1.14267 97.2988 1.628C97.7748 2.104 98.0128 2.73867 98.0128 3.532C98.0128 3.952 97.9195 4.37667 97.7328 4.806C97.5555 5.226 97.3035 5.66467 96.9768 6.122C96.6595 6.57 96.2768 7.04133 95.8288 7.536C95.3901 8.02133 94.9048 8.53933 94.3728 9.09C94.6155 9.07133 94.8675 9.05267 95.1288 9.034C95.3901 9.01533 95.6375 9.006 95.8708 9.006H98.4608V10H92.6928ZM99.6518 10V9.314C100.324 8.642 100.921 8.03533 101.444 7.494C101.966 6.95267 102.405 6.45333 102.76 5.996C103.114 5.52933 103.385 5.10467 103.572 4.722C103.758 4.33 103.852 3.952 103.852 3.588C103.852 3.07467 103.712 2.65467 103.432 2.328C103.152 2.00133 102.727 1.838 102.158 1.838C101.784 1.838 101.439 1.94533 101.122 2.16C100.804 2.36533 100.515 2.61733 100.254 2.916L99.5958 2.258C99.9691 1.84733 100.366 1.52067 100.786 1.278C101.206 1.026 101.71 0.899999 102.298 0.899999C103.128 0.899999 103.782 1.14267 104.258 1.628C104.734 2.104 104.972 2.73867 104.972 3.532C104.972 3.952 104.878 4.37667 104.692 4.806C104.514 5.226 104.262 5.66467 103.936 6.122C103.618 6.57 103.236 7.04133 102.788 7.536C102.349 8.02133 101.864 8.53933 101.332 9.09C101.574 9.07133 101.826 9.05267 102.088 9.034C102.349 9.01533 102.596 9.006 102.83 9.006H105.42V10H99.6518Z" fill="#242424"/>
</svg>
